<svg xmlns="http://www.w3.org/2000/svg" xmlns:xlink="http://www.w3.org/1999/xlink" width="500" zoomAndPan="magnify" viewBox="0 0 375 374.999991" height="500" preserveAspectRatio="xMidYMid meet" version="1.0"><defs><g/><clipPath id="7ab637b4c7"><path d="M 58.152344 84.46875 L 316 84.46875 L 316 247.96875 L 58.152344 247.96875 Z M 58.152344 84.46875 " clip-rule="nonzero"/></clipPath></defs><path fill="#ffffff" d="M 273.632812 200.726562 L 247.863281 180.117188 L 273.632812 159.492188 L 299.410156 180.117188 Z M 273.632812 200.726562 " fill-opacity="1" fill-rule="nonzero"/><g clip-path="url(#7ab637b4c7)"><path fill="#ffffff" d="M 273.617188 84.292969 L 239.273438 111.421875 L 204.878906 84.292969 L 100.226562 166.9375 L 100.226562 236.246094 C 74.613281 241.785156 58.992188 248.015625 58.992188 248.015625 L 195.101562 248.015625 L 195.101562 179.589844 L 273.617188 117.589844 L 315.804688 117.589844 Z M 168.964844 166.9375 L 168.964844 227.960938 C 153.609375 228.359375 139.273438 229.71875 126.363281 231.5625 L 126.363281 179.589844 L 204.878906 117.589844 L 218.207031 128.046875 Z M 168.964844 166.9375 " fill-opacity="1" fill-rule="nonzero"/></g><g fill="#ffffff" fill-opacity="1"><g transform="translate(54.177687, 282.76999)"><g><path d="M 25.03125 -25.03125 L 25.03125 -10.515625 C 25.03125 -7.203125 24.003906 -4.570312 21.953125 -2.625 C 19.910156 -0.6875 17.132812 0.28125 13.625 0.28125 C 10.09375 0.28125 7.285156 -0.6875 5.203125 -2.625 C 3.117188 -4.570312 2.078125 -7.203125 2.078125 -10.515625 L 2.078125 -25.03125 L 8.4375 -25.03125 L 8.4375 -10.515625 C 8.4375 -8.847656 8.921875 -7.519531 9.890625 -6.53125 C 10.859375 -5.539062 12.113281 -5.046875 13.65625 -5.046875 C 15.1875 -5.046875 16.410156 -5.53125 17.328125 -6.5 C 18.242188 -7.476562 18.703125 -8.816406 18.703125 -10.515625 L 18.703125 -25.03125 Z M 25.03125 -25.03125 "/></g></g></g><g fill="#ffffff" fill-opacity="1"><g transform="translate(82.709602, 282.76999)"><g><path d="M 15.09375 -19.5625 C 17.21875 -19.5625 18.921875 -18.882812 20.203125 -17.53125 C 21.492188 -16.1875 22.140625 -14.394531 22.140625 -12.15625 L 22.140625 0 L 15.984375 0 L 15.984375 -10.4375 C 15.984375 -11.5625 15.675781 -12.453125 15.0625 -13.109375 C 14.457031 -13.765625 13.632812 -14.09375 12.59375 -14.09375 C 11.488281 -14.09375 10.582031 -13.734375 9.875 -13.015625 C 9.175781 -12.304688 8.769531 -11.363281 8.65625 -10.1875 L 8.65625 0 L 2.46875 0 L 2.46875 -19.28125 L 8.65625 -19.28125 L 8.65625 -16.125 C 10.007812 -18.375 12.15625 -19.519531 15.09375 -19.5625 Z M 15.09375 -19.5625 "/></g></g></g><g fill="#ffffff" fill-opacity="1"><g transform="translate(108.202437, 282.76999)"><g><path d="M 3.234375 -27.15625 C 3.847656 -27.769531 4.628906 -28.078125 5.578125 -28.078125 C 6.535156 -28.078125 7.316406 -27.769531 7.921875 -27.15625 C 8.523438 -26.550781 8.828125 -25.769531 8.828125 -24.8125 C 8.828125 -23.863281 8.523438 -23.078125 7.921875 -22.453125 C 7.316406 -21.835938 6.535156 -21.53125 5.578125 -21.53125 C 4.628906 -21.53125 3.847656 -21.835938 3.234375 -22.453125 C 2.628906 -23.078125 2.328125 -23.863281 2.328125 -24.8125 C 2.328125 -25.769531 2.628906 -26.550781 3.234375 -27.15625 Z M 8.625 0 L 2.46875 0 L 2.46875 -19.28125 L 8.625 -19.28125 Z M 8.625 0 "/></g></g></g><g fill="#ffffff" fill-opacity="1"><g transform="translate(120.752382, 282.76999)"><g><path d="M 17.59375 0 L 13.875 -7.046875 L 8.875 -7.046875 L 8.875 0 L 2.5 0 L 2.5 -25.03125 L 13.703125 -25.03125 C 17.015625 -25.03125 19.578125 -24.273438 21.390625 -22.765625 C 23.203125 -21.253906 24.109375 -19.101562 24.109375 -16.3125 C 24.109375 -12.445312 22.59375 -9.765625 19.5625 -8.265625 L 24.828125 0 Z M 8.875 -12.046875 L 13.703125 -12.046875 C 15.078125 -12.046875 16.144531 -12.390625 16.90625 -13.078125 C 17.675781 -13.773438 18.0625 -14.78125 18.0625 -16.09375 C 18.0625 -17.382812 17.675781 -18.363281 16.90625 -19.03125 C 16.144531 -19.695312 15.078125 -20.03125 13.703125 -20.03125 L 8.875 -20.03125 Z M 8.875 -12.046875 "/></g></g></g><g fill="#ffffff" fill-opacity="1"><g transform="translate(148.06866, 282.76999)"><g><path d="M 10.90625 -19.5 C 14.25 -19.5 16.757812 -18.472656 18.4375 -16.421875 C 20.113281 -14.367188 20.847656 -11.550781 20.640625 -7.96875 L 7.078125 -7.96875 C 7.390625 -6.832031 7.9375 -5.953125 8.71875 -5.328125 C 9.507812 -4.710938 10.476562 -4.40625 11.625 -4.40625 C 13.382812 -4.40625 14.921875 -5.054688 16.234375 -6.359375 L 19.5 -3.1875 C 17.414062 -0.914062 14.613281 0.21875 11.09375 0.21875 C 7.96875 0.21875 5.476562 -0.675781 3.625 -2.46875 C 1.78125 -4.257812 0.859375 -6.628906 0.859375 -9.578125 C 0.859375 -12.566406 1.78125 -14.96875 3.625 -16.78125 C 5.476562 -18.59375 7.90625 -19.5 10.90625 -19.5 Z M 6.96875 -11.296875 L 14.703125 -11.296875 C 14.703125 -12.460938 14.359375 -13.40625 13.671875 -14.125 C 12.992188 -14.84375 12.097656 -15.203125 10.984375 -15.203125 C 9.929688 -15.203125 9.046875 -14.847656 8.328125 -14.140625 C 7.617188 -13.441406 7.164062 -12.492188 6.96875 -11.296875 Z M 6.96875 -11.296875 "/></g></g></g><g fill="#ffffff" fill-opacity="1"><g transform="translate(171.022978, 282.76999)"><g><path d="M 9.375 -19.5625 C 12.207031 -19.5625 14.851562 -18.832031 17.3125 -17.375 L 15.203125 -13.375 C 12.816406 -14.664062 10.789062 -15.3125 9.125 -15.3125 C 7.851562 -15.3125 7.21875 -14.867188 7.21875 -13.984375 C 7.21875 -13.503906 7.5625 -13.101562 8.25 -12.78125 C 8.945312 -12.457031 9.796875 -12.164062 10.796875 -11.90625 C 11.796875 -11.644531 12.789062 -11.316406 13.78125 -10.921875 C 14.769531 -10.535156 15.609375 -9.910156 16.296875 -9.046875 C 16.992188 -8.191406 17.34375 -7.144531 17.34375 -5.90625 C 17.34375 -3.96875 16.59375 -2.457031 15.09375 -1.375 C 13.59375 -0.289062 11.640625 0.25 9.234375 0.25 C 5.816406 0.25 2.929688 -0.65625 0.578125 -2.46875 L 2.546875 -6.40625 C 4.804688 -4.800781 7.082031 -4 9.375 -4 C 10.78125 -4 11.484375 -4.441406 11.484375 -5.328125 C 11.484375 -5.828125 11.140625 -6.242188 10.453125 -6.578125 C 9.773438 -6.910156 8.945312 -7.207031 7.96875 -7.46875 C 7 -7.738281 6.023438 -8.066406 5.046875 -8.453125 C 4.066406 -8.847656 3.234375 -9.460938 2.546875 -10.296875 C 1.867188 -11.128906 1.53125 -12.179688 1.53125 -13.453125 C 1.53125 -15.378906 2.257812 -16.878906 3.71875 -17.953125 C 5.175781 -19.023438 7.0625 -19.5625 9.375 -19.5625 Z M 9.375 -19.5625 "/></g></g></g><g fill="#ffffff" fill-opacity="1"><g transform="translate(190.795197, 282.76999)"><g><path d="M 3.234375 -27.15625 C 3.847656 -27.769531 4.628906 -28.078125 5.578125 -28.078125 C 6.535156 -28.078125 7.316406 -27.769531 7.921875 -27.15625 C 8.523438 -26.550781 8.828125 -25.769531 8.828125 -24.8125 C 8.828125 -23.863281 8.523438 -23.078125 7.921875 -22.453125 C 7.316406 -21.835938 6.535156 -21.53125 5.578125 -21.53125 C 4.628906 -21.53125 3.847656 -21.835938 3.234375 -22.453125 C 2.628906 -23.078125 2.328125 -23.863281 2.328125 -24.8125 C 2.328125 -25.769531 2.628906 -26.550781 3.234375 -27.15625 Z M 8.625 0 L 2.46875 0 L 2.46875 -19.28125 L 8.625 -19.28125 Z M 8.625 0 "/></g></g></g><g fill="#ffffff" fill-opacity="1"><g transform="translate(203.345142, 282.76999)"><g><path d="M 21.890625 -26.53125 L 21.890625 0 L 15.703125 0 L 15.703125 -2.546875 C 14.296875 -0.679688 12.363281 0.25 9.90625 0.25 C 7.1875 0.25 5.003906 -0.664062 3.359375 -2.5 C 1.710938 -4.332031 0.890625 -6.742188 0.890625 -9.734375 C 0.890625 -12.679688 1.703125 -15.050781 3.328125 -16.84375 C 4.953125 -18.632812 7.097656 -19.53125 9.765625 -19.53125 C 12.316406 -19.53125 14.296875 -18.597656 15.703125 -16.734375 L 15.703125 -26.53125 Z M 8.296875 -5.9375 C 9.085938 -5.007812 10.125 -4.546875 11.40625 -4.546875 C 12.695312 -4.546875 13.734375 -5.007812 14.515625 -5.9375 C 15.304688 -6.863281 15.703125 -8.078125 15.703125 -9.578125 C 15.703125 -11.054688 15.304688 -12.257812 14.515625 -13.1875 C 13.734375 -14.125 12.695312 -14.59375 11.40625 -14.59375 C 10.125 -14.59375 9.085938 -14.132812 8.296875 -13.21875 C 7.515625 -12.300781 7.109375 -11.085938 7.078125 -9.578125 C 7.109375 -8.078125 7.515625 -6.863281 8.296875 -5.9375 Z M 8.296875 -5.9375 "/></g></g></g><g fill="#ffffff" fill-opacity="1"><g transform="translate(229.302779, 282.76999)"><g><path d="M 10.90625 -19.5 C 14.25 -19.5 16.757812 -18.472656 18.4375 -16.421875 C 20.113281 -14.367188 20.847656 -11.550781 20.640625 -7.96875 L 7.078125 -7.96875 C 7.390625 -6.832031 7.9375 -5.953125 8.71875 -5.328125 C 9.507812 -4.710938 10.476562 -4.40625 11.625 -4.40625 C 13.382812 -4.40625 14.921875 -5.054688 16.234375 -6.359375 L 19.5 -3.1875 C 17.414062 -0.914062 14.613281 0.21875 11.09375 0.21875 C 7.96875 0.21875 5.476562 -0.675781 3.625 -2.46875 C 1.78125 -4.257812 0.859375 -6.628906 0.859375 -9.578125 C 0.859375 -12.566406 1.78125 -14.96875 3.625 -16.78125 C 5.476562 -18.59375 7.90625 -19.5 10.90625 -19.5 Z M 6.96875 -11.296875 L 14.703125 -11.296875 C 14.703125 -12.460938 14.359375 -13.40625 13.671875 -14.125 C 12.992188 -14.84375 12.097656 -15.203125 10.984375 -15.203125 C 9.929688 -15.203125 9.046875 -14.847656 8.328125 -14.140625 C 7.617188 -13.441406 7.164062 -12.492188 6.96875 -11.296875 Z M 6.96875 -11.296875 "/></g></g></g><g fill="#ffffff" fill-opacity="1"><g transform="translate(252.257096, 282.76999)"><g><path d="M 15.09375 -19.5625 C 17.21875 -19.5625 18.921875 -18.882812 20.203125 -17.53125 C 21.492188 -16.1875 22.140625 -14.394531 22.140625 -12.15625 L 22.140625 0 L 15.984375 0 L 15.984375 -10.4375 C 15.984375 -11.5625 15.675781 -12.453125 15.0625 -13.109375 C 14.457031 -13.765625 13.632812 -14.09375 12.59375 -14.09375 C 11.488281 -14.09375 10.582031 -13.734375 9.875 -13.015625 C 9.175781 -12.304688 8.769531 -11.363281 8.65625 -10.1875 L 8.65625 0 L 2.46875 0 L 2.46875 -19.28125 L 8.65625 -19.28125 L 8.65625 -16.125 C 10.007812 -18.375 12.15625 -19.519531 15.09375 -19.5625 Z M 15.09375 -19.5625 "/></g></g></g><g fill="#ffffff" fill-opacity="1"><g transform="translate(277.749931, 282.76999)"><g><path d="M 10.875 -19.5 C 12.78125 -19.5 14.476562 -19.117188 15.96875 -18.359375 C 17.457031 -17.609375 18.617188 -16.546875 19.453125 -15.171875 L 15.015625 -12.484375 C 14.066406 -13.816406 12.769531 -14.484375 11.125 -14.484375 C 9.925781 -14.484375 8.953125 -14.035156 8.203125 -13.140625 C 7.453125 -12.242188 7.078125 -11.070312 7.078125 -9.625 C 7.078125 -8.144531 7.445312 -6.957031 8.1875 -6.0625 C 8.925781 -5.164062 9.90625 -4.71875 11.125 -4.71875 C 12.9375 -4.71875 14.25 -5.445312 15.0625 -6.90625 L 19.5625 -4.25 C 18.78125 -2.820312 17.628906 -1.71875 16.109375 -0.9375 C 14.597656 -0.164062 12.828125 0.21875 10.796875 0.21875 C 7.816406 0.21875 5.414062 -0.679688 3.59375 -2.484375 C 1.769531 -4.285156 0.859375 -6.648438 0.859375 -9.578125 C 0.859375 -12.535156 1.78125 -14.925781 3.625 -16.75 C 5.476562 -18.582031 7.894531 -19.5 10.875 -19.5 Z M 10.875 -19.5 "/></g></g></g><g fill="#ffffff" fill-opacity="1"><g transform="translate(299.274092, 282.76999)"><g><path d="M 10.90625 -19.5 C 14.25 -19.5 16.757812 -18.472656 18.4375 -16.421875 C 20.113281 -14.367188 20.847656 -11.550781 20.640625 -7.96875 L 7.078125 -7.96875 C 7.390625 -6.832031 7.9375 -5.953125 8.71875 -5.328125 C 9.507812 -4.710938 10.476562 -4.40625 11.625 -4.40625 C 13.382812 -4.40625 14.921875 -5.054688 16.234375 -6.359375 L 19.5 -3.1875 C 17.414062 -0.914062 14.613281 0.21875 11.09375 0.21875 C 7.96875 0.21875 5.476562 -0.675781 3.625 -2.46875 C 1.78125 -4.257812 0.859375 -6.628906 0.859375 -9.578125 C 0.859375 -12.566406 1.78125 -14.96875 3.625 -16.78125 C 5.476562 -18.59375 7.90625 -19.5 10.90625 -19.5 Z M 6.96875 -11.296875 L 14.703125 -11.296875 C 14.703125 -12.460938 14.359375 -13.40625 13.671875 -14.125 C 12.992188 -14.84375 12.097656 -15.203125 10.984375 -15.203125 C 9.929688 -15.203125 9.046875 -14.847656 8.328125 -14.140625 C 7.617188 -13.441406 7.164062 -12.492188 6.96875 -11.296875 Z M 6.96875 -11.296875 "/></g></g></g></svg>