<svg xmlns="http://www.w3.org/2000/svg" xmlns:xlink="http://www.w3.org/1999/xlink" width="207" zoomAndPan="magnify" viewBox="0 0 155.25 30.000001" height="40" preserveAspectRatio="xMidYMid meet" version="1.0"><defs><g/><clipPath id="adda25f2a2"><path d="M 5.042969 5.964844 L 31.898438 5.964844 L 31.898438 23.382812 L 5.042969 23.382812 Z M 5.042969 5.964844 " clip-rule="nonzero"/></clipPath></defs><path fill="#ffffff" d="M 27.566406 18.113281 L 24.871094 15.960938 L 27.566406 13.804688 L 30.261719 15.960938 Z M 27.566406 18.113281 " fill-opacity="1" fill-rule="nonzero"/><g clip-path="url(#adda25f2a2)"><path fill="#ffffff" d="M 27.5625 5.945312 L 23.972656 8.78125 L 20.378906 5.945312 L 9.441406 14.582031 L 9.441406 21.828125 C 6.761719 22.40625 5.128906 23.058594 5.128906 23.058594 L 19.359375 23.058594 L 19.359375 15.90625 L 27.5625 9.425781 L 31.972656 9.425781 Z M 16.625 14.582031 L 16.625 20.960938 C 15.019531 21.003906 13.523438 21.144531 12.171875 21.335938 L 12.171875 15.90625 L 20.378906 9.425781 L 21.773438 10.519531 Z M 16.625 14.582031 " fill-opacity="1" fill-rule="nonzero"/></g><g fill="#ffffff" fill-opacity="1"><g transform="translate(37.150563, 20.455314)"><g><path d="M 10.328125 -10.328125 L 10.328125 -4.34375 C 10.328125 -2.96875 9.898438 -1.878906 9.046875 -1.078125 C 8.203125 -0.273438 7.0625 0.125 5.625 0.125 C 4.164062 0.125 3.003906 -0.273438 2.140625 -1.078125 C 1.285156 -1.878906 0.859375 -2.96875 0.859375 -4.34375 L 0.859375 -10.328125 L 3.484375 -10.328125 L 3.484375 -4.34375 C 3.484375 -3.644531 3.679688 -3.09375 4.078125 -2.6875 C 4.472656 -2.28125 4.992188 -2.078125 5.640625 -2.078125 C 6.265625 -2.078125 6.765625 -2.28125 7.140625 -2.6875 C 7.523438 -3.09375 7.71875 -3.644531 7.71875 -4.34375 L 7.71875 -10.328125 Z M 10.328125 -10.328125 "/></g></g></g><g fill="#ffffff" fill-opacity="1"><g transform="translate(48.915927, 20.455314)"><g><path d="M 6.21875 -8.0625 C 7.09375 -8.0625 7.796875 -7.785156 8.328125 -7.234375 C 8.859375 -6.679688 9.125 -5.941406 9.125 -5.015625 L 9.125 0 L 6.59375 0 L 6.59375 -4.3125 C 6.59375 -4.769531 6.46875 -5.132812 6.21875 -5.40625 C 5.96875 -5.675781 5.625 -5.8125 5.1875 -5.8125 C 4.738281 -5.8125 4.367188 -5.660156 4.078125 -5.359375 C 3.785156 -5.066406 3.613281 -4.679688 3.5625 -4.203125 L 3.5625 0 L 1.015625 0 L 1.015625 -7.953125 L 3.5625 -7.953125 L 3.5625 -6.65625 C 4.125 -7.570312 5.007812 -8.039062 6.21875 -8.0625 Z M 6.21875 -8.0625 "/></g></g></g><g fill="#ffffff" fill-opacity="1"><g transform="translate(59.42814, 20.455314)"><g><path d="M 1.328125 -11.203125 C 1.585938 -11.453125 1.910156 -11.578125 2.296875 -11.578125 C 2.691406 -11.578125 3.015625 -11.453125 3.265625 -11.203125 C 3.515625 -10.953125 3.640625 -10.628906 3.640625 -10.234375 C 3.640625 -9.835938 3.515625 -9.507812 3.265625 -9.25 C 3.015625 -9 2.691406 -8.875 2.296875 -8.875 C 1.910156 -8.875 1.585938 -9 1.328125 -9.25 C 1.078125 -9.507812 0.953125 -9.835938 0.953125 -10.234375 C 0.953125 -10.628906 1.078125 -10.953125 1.328125 -11.203125 Z M 3.5625 0 L 1.015625 0 L 1.015625 -7.953125 L 3.5625 -7.953125 Z M 3.5625 0 "/></g></g></g><g fill="#ffffff" fill-opacity="1"><g transform="translate(64.60339, 20.455314)"><g><path d="M 7.25 0 L 5.71875 -2.90625 L 3.65625 -2.90625 L 3.65625 0 L 1.03125 0 L 1.03125 -10.328125 L 5.65625 -10.328125 C 7.019531 -10.328125 8.070312 -10.015625 8.8125 -9.390625 C 9.5625 -8.765625 9.9375 -7.875 9.9375 -6.71875 C 9.9375 -5.132812 9.3125 -4.03125 8.0625 -3.40625 L 10.234375 0 Z M 3.65625 -4.96875 L 5.65625 -4.96875 C 6.21875 -4.96875 6.65625 -5.109375 6.96875 -5.390625 C 7.289062 -5.679688 7.453125 -6.097656 7.453125 -6.640625 C 7.453125 -7.171875 7.289062 -7.570312 6.96875 -7.84375 C 6.65625 -8.125 6.21875 -8.265625 5.65625 -8.265625 L 3.65625 -8.265625 Z M 3.65625 -4.96875 "/></g></g></g><g fill="#ffffff" fill-opacity="1"><g transform="translate(75.867491, 20.455314)"><g><path d="M 4.5 -8.03125 C 5.875 -8.03125 6.90625 -7.609375 7.59375 -6.765625 C 8.289062 -5.921875 8.597656 -4.765625 8.515625 -3.296875 L 2.921875 -3.296875 C 3.046875 -2.816406 3.269531 -2.445312 3.59375 -2.1875 C 3.914062 -1.9375 4.316406 -1.8125 4.796875 -1.8125 C 5.523438 -1.8125 6.160156 -2.082031 6.703125 -2.625 L 8.03125 -1.3125 C 7.175781 -0.375 6.023438 0.09375 4.578125 0.09375 C 3.285156 0.09375 2.257812 -0.273438 1.5 -1.015625 C 0.738281 -1.753906 0.359375 -2.734375 0.359375 -3.953125 C 0.359375 -5.179688 0.738281 -6.164062 1.5 -6.90625 C 2.257812 -7.65625 3.257812 -8.03125 4.5 -8.03125 Z M 2.875 -4.65625 L 6.0625 -4.65625 C 6.0625 -5.144531 5.921875 -5.535156 5.640625 -5.828125 C 5.359375 -6.117188 4.988281 -6.265625 4.53125 -6.265625 C 4.09375 -6.265625 3.726562 -6.117188 3.4375 -5.828125 C 3.144531 -5.546875 2.957031 -5.15625 2.875 -4.65625 Z M 2.875 -4.65625 "/></g></g></g><g fill="#ffffff" fill-opacity="1"><g transform="translate(85.332943, 20.455314)"><g><path d="M 3.859375 -8.0625 C 5.035156 -8.0625 6.128906 -7.765625 7.140625 -7.171875 L 6.265625 -5.515625 C 5.285156 -6.046875 4.453125 -6.3125 3.765625 -6.3125 C 3.242188 -6.3125 2.984375 -6.128906 2.984375 -5.765625 C 2.984375 -5.566406 3.125 -5.398438 3.40625 -5.265625 C 3.6875 -5.140625 4.035156 -5.019531 4.453125 -4.90625 C 4.867188 -4.800781 5.28125 -4.664062 5.6875 -4.5 C 6.09375 -4.34375 6.4375 -4.085938 6.71875 -3.734375 C 7.007812 -3.378906 7.15625 -2.945312 7.15625 -2.4375 C 7.15625 -1.632812 6.84375 -1.007812 6.21875 -0.5625 C 5.601562 -0.113281 4.800781 0.109375 3.8125 0.109375 C 2.40625 0.109375 1.210938 -0.265625 0.234375 -1.015625 L 1.046875 -2.640625 C 1.984375 -1.984375 2.921875 -1.65625 3.859375 -1.65625 C 4.441406 -1.65625 4.734375 -1.835938 4.734375 -2.203125 C 4.734375 -2.398438 4.59375 -2.566406 4.3125 -2.703125 C 4.03125 -2.847656 3.6875 -2.972656 3.28125 -3.078125 C 2.882812 -3.191406 2.484375 -3.328125 2.078125 -3.484375 C 1.671875 -3.648438 1.328125 -3.90625 1.046875 -4.25 C 0.773438 -4.59375 0.640625 -5.023438 0.640625 -5.546875 C 0.640625 -6.335938 0.9375 -6.953125 1.53125 -7.390625 C 2.132812 -7.835938 2.910156 -8.0625 3.859375 -8.0625 Z M 3.859375 -8.0625 "/></g></g></g><g fill="#ffffff" fill-opacity="1"><g transform="translate(93.486272, 20.455314)"><g><path d="M 1.328125 -11.203125 C 1.585938 -11.453125 1.910156 -11.578125 2.296875 -11.578125 C 2.691406 -11.578125 3.015625 -11.453125 3.265625 -11.203125 C 3.515625 -10.953125 3.640625 -10.628906 3.640625 -10.234375 C 3.640625 -9.835938 3.515625 -9.507812 3.265625 -9.25 C 3.015625 -9 2.691406 -8.875 2.296875 -8.875 C 1.910156 -8.875 1.585938 -9 1.328125 -9.25 C 1.078125 -9.507812 0.953125 -9.835938 0.953125 -10.234375 C 0.953125 -10.628906 1.078125 -10.953125 1.328125 -11.203125 Z M 3.5625 0 L 1.015625 0 L 1.015625 -7.953125 L 3.5625 -7.953125 Z M 3.5625 0 "/></g></g></g><g fill="#ffffff" fill-opacity="1"><g transform="translate(98.661519, 20.455314)"><g><path d="M 9.03125 -10.9375 L 9.03125 0 L 6.46875 0 L 6.46875 -1.046875 C 5.894531 -0.273438 5.097656 0.109375 4.078125 0.109375 C 2.960938 0.109375 2.066406 -0.269531 1.390625 -1.03125 C 0.710938 -1.789062 0.375 -2.785156 0.375 -4.015625 C 0.375 -5.234375 0.707031 -6.207031 1.375 -6.9375 C 2.039062 -7.675781 2.925781 -8.046875 4.03125 -8.046875 C 5.082031 -8.046875 5.894531 -7.664062 6.46875 -6.90625 L 6.46875 -10.9375 Z M 3.421875 -2.453125 C 3.742188 -2.066406 4.171875 -1.875 4.703125 -1.875 C 5.234375 -1.875 5.660156 -2.066406 5.984375 -2.453125 C 6.304688 -2.835938 6.46875 -3.335938 6.46875 -3.953125 C 6.46875 -4.566406 6.304688 -5.0625 5.984375 -5.4375 C 5.660156 -5.820312 5.234375 -6.015625 4.703125 -6.015625 C 4.171875 -6.015625 3.742188 -5.820312 3.421875 -5.4375 C 3.097656 -5.0625 2.929688 -4.566406 2.921875 -3.953125 C 2.929688 -3.335938 3.097656 -2.835938 3.421875 -2.453125 Z M 3.421875 -2.453125 "/></g></g></g><g fill="#ffffff" fill-opacity="1"><g transform="translate(109.365381, 20.455314)"><g><path d="M 4.5 -8.03125 C 5.875 -8.03125 6.90625 -7.609375 7.59375 -6.765625 C 8.289062 -5.921875 8.597656 -4.765625 8.515625 -3.296875 L 2.921875 -3.296875 C 3.046875 -2.816406 3.269531 -2.445312 3.59375 -2.1875 C 3.914062 -1.9375 4.316406 -1.8125 4.796875 -1.8125 C 5.523438 -1.8125 6.160156 -2.082031 6.703125 -2.625 L 8.03125 -1.3125 C 7.175781 -0.375 6.023438 0.09375 4.578125 0.09375 C 3.285156 0.09375 2.257812 -0.273438 1.5 -1.015625 C 0.738281 -1.753906 0.359375 -2.734375 0.359375 -3.953125 C 0.359375 -5.179688 0.738281 -6.164062 1.5 -6.90625 C 2.257812 -7.65625 3.257812 -8.03125 4.5 -8.03125 Z M 2.875 -4.65625 L 6.0625 -4.65625 C 6.0625 -5.144531 5.921875 -5.535156 5.640625 -5.828125 C 5.359375 -6.117188 4.988281 -6.265625 4.53125 -6.265625 C 4.09375 -6.265625 3.726562 -6.117188 3.4375 -5.828125 C 3.144531 -5.546875 2.957031 -5.15625 2.875 -4.65625 Z M 2.875 -4.65625 "/></g></g></g><g fill="#ffffff" fill-opacity="1"><g transform="translate(118.830834, 20.455314)"><g><path d="M 6.21875 -8.0625 C 7.09375 -8.0625 7.796875 -7.785156 8.328125 -7.234375 C 8.859375 -6.679688 9.125 -5.941406 9.125 -5.015625 L 9.125 0 L 6.59375 0 L 6.59375 -4.3125 C 6.59375 -4.769531 6.46875 -5.132812 6.21875 -5.40625 C 5.96875 -5.675781 5.625 -5.8125 5.1875 -5.8125 C 4.738281 -5.8125 4.367188 -5.660156 4.078125 -5.359375 C 3.785156 -5.066406 3.613281 -4.679688 3.5625 -4.203125 L 3.5625 0 L 1.015625 0 L 1.015625 -7.953125 L 3.5625 -7.953125 L 3.5625 -6.65625 C 4.125 -7.570312 5.007812 -8.039062 6.21875 -8.0625 Z M 6.21875 -8.0625 "/></g></g></g><g fill="#ffffff" fill-opacity="1"><g transform="translate(129.343044, 20.455314)"><g><path d="M 4.484375 -8.03125 C 5.265625 -8.03125 5.960938 -7.875 6.578125 -7.5625 C 7.191406 -7.257812 7.675781 -6.820312 8.03125 -6.25 L 6.1875 -5.140625 C 5.800781 -5.691406 5.269531 -5.96875 4.59375 -5.96875 C 4.09375 -5.96875 3.6875 -5.785156 3.375 -5.421875 C 3.070312 -5.054688 2.921875 -4.570312 2.921875 -3.96875 C 2.921875 -3.351562 3.070312 -2.863281 3.375 -2.5 C 3.675781 -2.132812 4.082031 -1.953125 4.59375 -1.953125 C 5.332031 -1.953125 5.867188 -2.25 6.203125 -2.84375 L 8.0625 -1.75 C 7.738281 -1.164062 7.265625 -0.710938 6.640625 -0.390625 C 6.015625 -0.0664062 5.285156 0.09375 4.453125 0.09375 C 3.222656 0.09375 2.234375 -0.273438 1.484375 -1.015625 C 0.734375 -1.765625 0.359375 -2.742188 0.359375 -3.953125 C 0.359375 -5.171875 0.738281 -6.15625 1.5 -6.90625 C 2.257812 -7.65625 3.253906 -8.03125 4.484375 -8.03125 Z M 4.484375 -8.03125 "/></g></g></g><g fill="#ffffff" fill-opacity="1"><g transform="translate(138.218779, 20.455314)"><g><path d="M 4.5 -8.03125 C 5.875 -8.03125 6.90625 -7.609375 7.59375 -6.765625 C 8.289062 -5.921875 8.597656 -4.765625 8.515625 -3.296875 L 2.921875 -3.296875 C 3.046875 -2.816406 3.269531 -2.445312 3.59375 -2.1875 C 3.914062 -1.9375 4.316406 -1.8125 4.796875 -1.8125 C 5.523438 -1.8125 6.160156 -2.082031 6.703125 -2.625 L 8.03125 -1.3125 C 7.175781 -0.375 6.023438 0.09375 4.578125 0.09375 C 3.285156 0.09375 2.257812 -0.273438 1.5 -1.015625 C 0.738281 -1.753906 0.359375 -2.734375 0.359375 -3.953125 C 0.359375 -5.179688 0.738281 -6.164062 1.5 -6.90625 C 2.257812 -7.65625 3.257812 -8.03125 4.5 -8.03125 Z M 2.875 -4.65625 L 6.0625 -4.65625 C 6.0625 -5.144531 5.921875 -5.535156 5.640625 -5.828125 C 5.359375 -6.117188 4.988281 -6.265625 4.53125 -6.265625 C 4.09375 -6.265625 3.726562 -6.117188 3.4375 -5.828125 C 3.144531 -5.546875 2.957031 -5.15625 2.875 -4.65625 Z M 2.875 -4.65625 "/></g></g></g></svg>