<svg xmlns="http://www.w3.org/2000/svg" xmlns:xlink="http://www.w3.org/1999/xlink" width="500" zoomAndPan="magnify" viewBox="0 0 375 374.999991" height="500" preserveAspectRatio="xMidYMid meet" version="1.0"><defs><clipPath id="449a0a53e9"><path d="M 19 80.765625 L 355 80.765625 L 355 294.515625 L 19 294.515625 Z M 19 80.765625 " clip-rule="nonzero"/></clipPath></defs><path fill="#24252a" d="M 299.882812 232.445312 L 266.257812 205.554688 L 299.882812 178.648438 L 333.511719 205.554688 Z M 299.882812 232.445312 " fill-opacity="1" fill-rule="nonzero"/><g clip-path="url(#449a0a53e9)"><path fill="#24252a" d="M 299.859375 80.535156 L 255.054688 115.929688 L 210.175781 80.535156 L 73.636719 188.359375 L 73.636719 278.785156 C 40.21875 286.007812 19.839844 294.140625 19.839844 294.140625 L 197.421875 294.140625 L 197.421875 204.863281 L 299.859375 123.976562 L 354.898438 123.976562 Z M 163.324219 188.359375 L 163.324219 267.976562 C 143.285156 268.496094 124.585938 270.269531 107.738281 272.675781 L 107.738281 204.863281 L 210.175781 123.976562 L 227.566406 137.617188 Z M 163.324219 188.359375 " fill-opacity="1" fill-rule="nonzero"/></g></svg>